<!-- Generator: Adobe Illustrator 21.0.2, SVG Export Plug-In . SVG Version: 6.00 Build 0)  -->
<svg version="1.1" id="Capa_1" xmlns="http://www.w3.org/2000/svg" xmlns:xlink="http://www.w3.org/1999/xlink" x="0px" y="0px"
	 width="1000px" height="250px" viewBox="0 0 1000 250" style="enable-background:new 0 0 1000 250;" xml:space="preserve">
<g>
	<g>
		<path class="st0" d="M774.2,130.3l12.2-37l11.9,37H774.2z"/>
		<polygon class="st0" points="774.2,130.3 798.3,130.3 786.4,93.3 		"/>
		<path class="st0" d="M786.1,49c-40,0-72.5,32.5-72.5,72.5s32.5,72.5,72.5,72.5s72.5-32.5,72.5-72.5S826.2,49,786.1,49z
			 M809.7,165.8l-6.2-19.3h-34.6l-6.4,19.3h-20.6l33.6-94h22.2l33.3,94H809.7z"/>
	</g>
	<g>
		<path class="st0" d="M111,73.3c10.1,10.7,15.2,26.4,15.2,47c0,21.8-4.9,38.4-14.8,49.9c-9.9,11.4-22.6,17.2-38.1,17.2
			c-9.9,0-18.1-2.5-24.7-7.4c-3.6-2.7-7.1-6.7-10.5-11.9v64.5H6V60h31v18.3c3.5-5.4,7.2-9.6,11.2-12.7c7.2-5.5,15.9-8.3,25.8-8.3
			C88.6,57.3,100.9,62.6,111,73.3z M86.2,96.6c-4.4-7.3-11.5-11-21.4-11c-11.9,0-20,5.6-24.4,16.7c-2.3,5.9-3.4,13.4-3.4,22.5
			c0,14.4,3.9,24.5,11.6,30.3c4.6,3.4,10,5.1,16.3,5.1c9.1,0,16.1-3.5,20.8-10.5c4.8-7,7.2-16.2,7.2-27.8
			C92.8,112.3,90.6,103.9,86.2,96.6z"/>
		<path class="st0" d="M239.5,168.6C229,181.5,213.2,188,191.9,188s-37.1-6.5-47.6-19.4s-15.7-28.4-15.7-46.6
			c0-17.9,5.2-33.3,15.7-46.4C154.7,62.5,170.6,56,191.9,56s37.1,6.5,47.6,19.6c10.4,13.1,15.7,28.6,15.7,46.4
			C255.2,140.2,249.9,155.8,239.5,168.6z M213.6,150.8c5.1-6.7,7.6-16.3,7.6-28.7s-2.5-21.9-7.6-28.6s-12.3-10-21.8-10
			s-16.8,3.3-21.9,10c-5.1,6.7-7.7,16.2-7.7,28.6s2.6,22,7.7,28.7c5.1,6.7,12.4,10.1,21.9,10.1C201.2,160.9,208.5,157.5,213.6,150.8
			z"/>
		<path class="st0" d="M365.4,67.1c8.1,6.7,12.2,17.8,12.2,33.3v83.4h-33.2v-75.3c0-6.5-0.9-11.5-2.6-15c-3.2-6.4-9.2-9.5-18-9.5
			c-10.9,0-18.4,4.7-22.4,14c-2.1,4.9-3.2,11.2-3.2,18.9v67h-32.4V60.2h31.4v18.1c4.1-6.4,8.1-10.9,11.8-13.7c6.6-5,15-7.5,25.2-7.5
			C346.9,57,357.3,60.4,365.4,67.1z"/>
		<path class="st0" d="M460.5,62c5.8,3.3,10.6,7.9,14.2,13.7V16.6h32.8v167.2H476v-17.2c-4.6,7.3-9.9,12.7-15.8,16s-13.3,5-22,5
			c-14.5,0-26.6-5.8-36.5-17.5s-14.8-26.7-14.8-45c0-21.1,4.9-37.8,14.6-49.9s22.7-18.2,39-18.2C448,57,454.7,58.7,460.5,62z
			 M468.5,150.2c4.8-6.8,7.2-15.6,7.2-26.5c0-15.1-3.8-26-11.5-32.5c-4.7-3.9-10.2-5.9-16.4-5.9c-9.5,0-16.4,3.6-20.8,10.7
			c-4.4,7.2-6.6,16-6.6,26.6c0,11.4,2.3,20.6,6.8,27.4c4.5,6.9,11.3,10.3,20.5,10.3S463.7,157,468.5,150.2z"/>
		<path class="st0" d="M604.8,62.5c8.6,3.9,15.8,10,21.4,18.3c5.1,7.4,8.4,15.9,9.9,25.6c0.9,5.7,1.2,13.9,1.1,24.6H547
			c0.5,12.4,4.8,21.1,12.9,26.1c4.9,3.1,10.9,4.7,17.8,4.7c7.4,0,13.4-1.9,18-5.7c2.5-2,4.7-4.9,6.7-8.5h33.1
			c-0.9,7.3-4.9,14.8-12,22.4c-11.1,12-26.6,18.1-46.6,18.1c-16.5,0-31-5.1-43.6-15.2c-12.6-10.2-18.9-26.7-18.9-49.6
			c0-21.4,5.7-37.9,17.1-49.3c11.4-11.4,26.1-17.2,44.3-17.2C586.5,56.7,596.2,58.6,604.8,62.5z M556.4,90.5
			c-4.6,4.7-7.5,11.1-8.6,19.2h55.8c-0.6-8.6-3.5-15.1-8.6-19.6c-5.2-4.4-11.6-6.7-19.2-6.7C567.4,83.4,561,85.7,556.4,90.5z"/>
		<path class="st0" d="M709.5,57.1c0.4,0,1.3,0.1,2.8,0.2v33.2c-2-0.2-3.9-0.4-5.5-0.5s-2.9-0.1-3.9-0.1c-13,0-21.8,4.2-26.2,12.7
			c-2.5,4.8-3.7,12.1-3.7,22v59.2h-32.6V60h30.9v21.6c5-8.3,9.4-13.9,13.1-16.9c6.1-5.1,13.9-7.6,23.6-7.6
			C708.6,57,709.1,57,709.5,57.1z"/>
	</g>
	<g>
		<path class="st0" d="M857.9,159.7h23.4v23.1h-23.4V159.7z"/>
		<path class="st0" d="M943.8,128.8c-0.4-3.1-1.5-6-3.2-8.5c-2.5-3.4-6.3-5.1-11.5-5.1c-7.4,0-12.5,3.7-15.3,11
			c-1.4,3.9-2.2,9.1-2.2,15.6c0,6.2,0.7,11.1,2.2,14.9c2.6,7,7.6,10.5,14.9,10.5c5.2,0,8.8-1.4,11-4.2s3.5-6.4,4-10.8h22.5
			c-0.5,6.7-2.9,13-7.3,19c-6.9,9.6-17.1,14.4-30.7,14.4s-23.5-4-29.9-12.1c-6.4-8-9.6-18.5-9.6-31.3c0-14.4,3.5-25.7,10.6-33.7
			s16.8-12.1,29.2-12.1c10.6,0,19.2,2.4,25.9,7.1s10.7,13.1,11.9,25.1h-22.5V128.8z"/>
		<path class="st0" d="M995,182.8h-22V68.9h22V182.8z"/>
	</g>
</g>
</svg>
